<svg xmlns="http://www.w3.org/2000/svg" width="75.934" height="75.934" viewBox="0 0 71.188014 71.188006"><defs><clipPath id="a"><path d="M160 2988.632c0-14.744 11.952-26.696 26.696-26.696 14.743 0 26.695 11.952 26.695 26.696 0 14.743-11.95 26.695-26.693 26.695-14.744 0-26.697-11.952-26.697-26.695"/></clipPath><linearGradient x2="1" gradientUnits="userSpaceOnUse" gradientTransform="matrix(53.39124 0 0 -53.39124 160 2988.632)" id="b"><stop offset="0" stop-color="#2dbae8"/><stop offset=".093" stop-color="#2dbae8"/><stop offset=".874" stop-color="#00b6ad"/><stop offset="1" stop-color="#00b6ad"/></linearGradient></defs><g clip-path="url(#a)" transform="matrix(1.33333 0 0 -1.33333 -213.333 4020.436)"><path d="M160 2988.632c0-14.744 11.952-26.696 26.696-26.696 14.743 0 26.695 11.952 26.695 26.696 0 14.743-11.95 26.695-26.693 26.695-14.744 0-26.697-11.952-26.697-26.695" fill="url(#b)"/></g><path d="M35.447 19.154c-.356 1.886-1.002 5.11-1.688 6.733l-2.444 4.46-3.493 4.43-1.257 2.417c-.356.94-.618 2.112-.778 3.548.242 1.935.76 3.384 1.28 4.832 1.383 1.865 2.82 2.563 4.205 3.538 1.315.427 2.63.962 3.946.916 2.325-.043 4.012-.41 5.132-1.056 1.365-1.108 3.072-1.96 3.698-3.624.72-1.214.907-2.19 1.205-3.322.075-1.786-.384-4.213-1.09-5.36-1.064-1.824-2.497-3.436-3.814-5.132-1.127-1.504-2.104-3.36-3.018-5.36-1.2-2.237-1.422-4.65-1.888-7.02z" fill="#fff" fill-rule="evenodd" stroke="#e1e1e1" stroke-width=".213" stroke-linejoin="round"/></svg>