<?xml version="1.0" encoding="UTF-8" standalone="no"?>
<!-- Created with Inkscape (http://www.inkscape.org/) -->

<svg
   xmlns:dc="http://purl.org/dc/elements/1.1/"
   xmlns:cc="http://creativecommons.org/ns#"
   xmlns:rdf="http://www.w3.org/1999/02/22-rdf-syntax-ns#"
   xmlns:svg="http://www.w3.org/2000/svg"
   xmlns="http://www.w3.org/2000/svg"
   xmlns:sodipodi="http://sodipodi.sourceforge.net/DTD/sodipodi-0.dtd"
   xmlns:inkscape="http://www.inkscape.org/namespaces/inkscape"
   width="210mm"
   height="297mm"
   viewBox="0 0 744.09448819 1052.3622047"
   id="svg5348"
   version="1.1"
   inkscape:version="0.91 r13725"
   sodipodi:docname="logo+icon.svg">
  <defs
     id="defs5350">
    <clipPath
       clipPathUnits="userSpaceOnUse"
       id="clipPath186">
      <path
         d="m 160,2988.632 c 0,-14.744 11.952,-26.696 26.696,-26.696 l 0,0 c 14.743,0 26.695,11.952 26.695,26.696 l 0,0 c 0,14.743 -11.952,26.695 -26.695,26.695 l 0,0 c -14.744,0 -26.696,-11.952 -26.696,-26.695"
         id="path188"
         inkscape:connector-curvature="0" />
    </clipPath>
    <linearGradient
       x1="0"
       y1="0"
       x2="1"
       y2="0"
       gradientUnits="userSpaceOnUse"
       gradientTransform="matrix(53.391235,0,0,-53.391235,160,2988.6316)"
       spreadMethod="pad"
       id="linearGradient194">
      <stop
         style="stop-opacity:1;stop-color:#2dbae8"
         offset="0"
         id="stop196" />
      <stop
         style="stop-opacity:1;stop-color:#2dbae8"
         offset="0.0932304"
         id="stop198" />
      <stop
         style="stop-opacity:1;stop-color:#00b6ad"
         offset="0.874096"
         id="stop200" />
      <stop
         style="stop-opacity:1;stop-color:#00b6ad"
         offset="1"
         id="stop202" />
    </linearGradient>
    <clipPath
       clipPathUnits="userSpaceOnUse"
       id="clipPath186-6">
      <path
         d="m 160,2988.632 c 0,-14.744 11.952,-26.696 26.696,-26.696 l 0,0 c 14.743,0 26.695,11.952 26.695,26.696 l 0,0 c 0,14.743 -11.952,26.695 -26.695,26.695 l 0,0 c -14.744,0 -26.696,-11.952 -26.696,-26.695"
         id="path188-2"
         inkscape:connector-curvature="0" />
    </clipPath>
    <clipPath
       clipPathUnits="userSpaceOnUse"
       id="clipPath210">
      <path
         d="m 0,3089 1280,0 L 1280,0 0,0 0,3089 Z"
         id="path212"
         inkscape:connector-curvature="0" />
    </clipPath>
    <clipPath
       clipPathUnits="userSpaceOnUse"
       id="clipPath186-0">
      <path
         d="m 160,2988.632 c 0,-14.744 11.952,-26.696 26.696,-26.696 l 0,0 c 14.743,0 26.695,11.952 26.695,26.696 l 0,0 c 0,14.743 -11.952,26.695 -26.695,26.695 l 0,0 c -14.744,0 -26.696,-11.952 -26.696,-26.695"
         id="path188-9"
         inkscape:connector-curvature="0" />
    </clipPath>
  </defs>
  <sodipodi:namedview
     id="base"
     pagecolor="#ffffff"
     bordercolor="#666666"
     borderopacity="1.0"
     inkscape:pageopacity="0.0"
     inkscape:pageshadow="2"
     inkscape:zoom="3.9313016"
     inkscape:cx="270.29977"
     inkscape:cy="658.45282"
     inkscape:document-units="px"
     inkscape:current-layer="layer1"
     showgrid="false"
     inkscape:window-width="1280"
     inkscape:window-height="779"
     inkscape:window-x="0"
     inkscape:window-y="21"
     inkscape:window-maximized="1" />
  <metadata
     id="metadata5353">
    <rdf:RDF>
      <cc:Work
         rdf:about="">
        <dc:format>image/svg+xml</dc:format>
        <dc:type
           rdf:resource="http://purl.org/dc/dcmitype/StillImage" />
        <dc:title></dc:title>
      </cc:Work>
    </rdf:RDF>
  </metadata>
  <g
     inkscape:label="Layer 1"
     inkscape:groupmode="layer"
     id="layer1">
    <text
       y="401.3013"
       x="342.1279"
       style="font-variant:normal;font-weight:normal;font-stretch:normal;font-size:31.25px;font-family:'Geomanist Regular';-inkscape-font-specification:Geomanist-Regular;writing-mode:lr-tb;fill:#b0b0b0;fill-opacity:1;fill-rule:nonzero;stroke:none"
       id="text178">
      <tspan
         x="342.1279 364.2529 393.97165 419.6904"
         y="401.3013"
         sodipodi:role="line"
         id="tspan180">LUBR</tspan>
    </text>
    <g
       transform="matrix(1.25,0,0,-1.25,-7.6341024,4124.8481)"
       id="g182">
      <g
         id="g184"
         clip-path="url(#clipPath186-0)">
        <g
           id="g190">
          <g
             id="g192">
            <path
               d="m 160,2988.632 c 0,-14.744 11.952,-26.696 26.696,-26.696 l 0,0 c 14.743,0 26.695,11.952 26.695,26.696 l 0,0 c 0,14.743 -11.952,26.695 -26.695,26.695 l 0,0 c -14.744,0 -26.696,-11.952 -26.696,-26.695"
               style="fill:url(#linearGradient194);stroke:none"
               id="path204"
               inkscape:connector-curvature="0" />
          </g>
        </g>
      </g>
    </g>
    <g
       transform="matrix(1.25,0,0,-1.25,-7.6341024,4124.8481)"
       id="g206">
      <g
         id="g208"
         clip-path="url(#clipPath210)">
        <g
           id="g214"
           transform="translate(186,3000.0623)">
          <path
             d="M 0,0 C 0,0 -0.418,-5.552 -5.018,-10.571 -9.133,-15.06 -7,-22.467 0,-22.838 L 0,0 Z"
             style="fill:#ffffff;fill-opacity:1;fill-rule:nonzero;stroke:none"
             id="path216"
             inkscape:connector-curvature="0" />
        </g>
        <g
           id="g218"
           transform="translate(186,3000.446)">
          <path
             d="M 0,0 C 0,0 0.418,-5.936 5.018,-10.955 9.133,-15.443 8,-22.851 0,-23.222 L 0,0 Z"
             style="fill:#ffffff;fill-opacity:1;fill-rule:nonzero;stroke:none"
             id="path220"
             inkscape:connector-curvature="0" />
        </g>
        <g
           id="g222"
           transform="translate(249,3017)">
          <path
             d="M 0,0 0,-57"
             style="fill:#c0c0c0;fill-opacity:1;fill-rule:nonzero;stroke:none"
             id="path224"
             inkscape:connector-curvature="0" />
        </g>
      </g>
    </g>
  </g>
</svg>
