<svg xmlns="http://www.w3.org/2000/svg" width="197.752" height="71.188" viewBox="0 0 185.39235 66.738746"><defs><clipPath id="a"><path d="M160 2988.632c0-14.744 11.952-26.696 26.696-26.696 14.743 0 26.695 11.952 26.695 26.696 0 14.743-11.95 26.695-26.694 26.695S160 3003.375 160 2988.632"/></clipPath><linearGradient x2="1" gradientUnits="userSpaceOnUse" gradientTransform="matrix(53.39124 0 0 -53.39124 160 2988.632)" id="b"><stop offset="0" stop-color="#2dbae8"/><stop offset=".093" stop-color="#2dbae8"/><stop offset=".874" stop-color="#00b6ad"/><stop offset="1" stop-color="#00b6ad"/></linearGradient><clipPath id="c"><path d="M0 3089h1280V0H0v3089z"/></clipPath></defs><g clip-path="url(#a)" transform="matrix(1.25 0 0 -1.25 -200 3769.16)"><path d="M160 2988.632c0-14.744 11.952-26.696 26.696-26.696 14.743 0 26.695 11.952 26.695 26.696 0 14.743-11.95 26.695-26.694 26.695S160 3003.375 160 2988.632" fill="url(#b)"/></g><path d="M33.232 17.958c-.334 1.768-.94 4.79-1.583 6.312l-2.29 4.182-3.275 4.154-1.178 2.265c-.334.882-.58 1.98-.73 3.326.227 1.814.713 3.172 1.2 4.53 1.297 1.748 2.645 2.403 3.942 3.317 1.233.4 2.466.902 3.7.858 2.18-.04 3.762-.383 4.812-.99 1.28-1.038 2.88-1.838 3.467-3.397.675-1.138.85-2.052 1.13-3.114.07-1.675-.36-3.95-1.023-5.025-.997-1.71-2.34-3.222-3.575-4.812-1.057-1.41-1.973-3.15-2.83-5.024-1.125-2.098-1.333-4.36-1.77-6.582z" fill="#fff" fill-rule="evenodd" stroke="#e1e1e1" stroke-width=".2" stroke-linejoin="round"/><text y="547.927" x="475.979" style="-inkscape-font-specification:Geomanist-Regular" font-weight="400" font-size="31.25" font-family="Geomanist Regular" fill="#b0b0b0" transform="translate(-384.613 -504.734)"><tspan x="475.97891 498.10391 527.82263 553.54138" y="547.927" style="-inkscape-font-specification:Geomanist" font-family="Geomanist">LUBR</tspan></text><g clip-path="url(#c)" fill="#fff" transform="matrix(1.296 0 0 -1.0068 -419.217 2641.586)" stroke="#fff" stroke-width=".2"><path d="M186 3000.062s-.418-5.552-5.018-10.57c-4.115-4.49-1.982-11.897 5.018-12.268v22.838zM186 3000.446s.418-5.936 5.018-10.955c4.115-4.487 2.982-11.895-5.018-12.266v23.222zM249 3017v-57"/><path d="M-1520.358 104.405c-3.67-169.337-3.54-164.254.704 15.243 4.155 86.35 16.025 169.777 35.603 250.263 33.567 127.646 38.792 148.55 15.574 62.737.145.732-1.62-6.023-5.298-20.263 8.64 30.043 14.445 47.715 17.413 53.017-.033.417-.02.962.04 1.636.022.24.05.498.082.77.056.537.145 1.134.255 1.803.215 1.3.522 2.857.92 4.672.4 1.815.893 3.887 1.477 6.215.277 1.104.57 2.263.894 3.482.16.593.32 1.203.485 1.825.393 1.475.812 3.024 1.258 4.65 1.952 7.103 4.414 15.64 7.39 25.608-4.975-15.317-7.348-22.702-7.116-22.157-29.282-88.208-15.796-50.114 40.57 114.246 71.43 155.61 89.036 194.768 52.782 117.49v.002c-61.342-112.023-29.194-56.6 96.468 166.253v-.002c440.992 448.324 381.748 277.862-177.783-511.33-4.47-18.952-8.943-37.902-13.42-56.85-9.11-38.56-18.23-77.117-27.35-115.676-13.61-57.54-27.23-115.08-40.864-172.617H1568.91a467621.76 467621.76 0 0 1-40.86-172.817c-9.122-38.603-18.23-77.208-27.34-115.812-4.477-18.97-8.954-37.942-13.433-56.912C927.7-1099.4 868.354-1269.896 1309.294-821.652c125.58 222.73 157.676 278.01 96.268 165.854-36.388-77.544-18.94-38.642 52.382 116.69 56.028 163.517 69.32 200.72 39.77 111.644.072.036-2.46-7.857-7.602-23.68 2.942 9.866 5.37 18.3 7.285 25.303a558.12 558.12 0 0 1 1.704 6.38c.318 1.24.626 2.426.908 3.55.596 2.374 1.1 4.49 1.512 6.348.412 1.86.733 3.46.96 4.805.12.69.21 1.315.282 1.867.035.262.058.507.077.736.053.642.06 1.155.02 1.54 2.938 5.16 8.707 22.692 17.31 52.595-3.858-14.95-5.813-22.413-5.86-22.388-23.47-86.75-18.58-66.764 14.776 59.933 19.057 78.184 30.59 159.264 34.602 243.258 4.13 177.632 4.47 180.842.704 9.64z" fill-rule="evenodd"/><path d="M186.02 2999.568l-.08-22.275z" fill-rule="evenodd" stroke-linejoin="round"/></g></svg>